PathFileType	4	(X/Y/Z)	/Users/itak/Documents/Research/Walk-IL/dataset/trc/00381_00012.trc
DataRate	CameraRate	NumFrames	NumMarkers	Units	OrigDataRate	OrigDataStartFrame	OrigNumFrames
100.000000	100.000000	4	54	mm	100.000000	182	487
Frame#	Time	RPSI			LPSI			L3			STRN			T10			C7			CLAV			RBAK			LBAK			LSHO			LUPA			LAEL			LAOL			LWTS			LWPS			LFRA			LHPS			LHTS			RSHO			RUPA			RAEL			RAOL			RWTS			RWPS			RFRA			RIFD			RHPS			RBHD			LFHD			RFHD			LBHD			LHIP			RASI			LASI			LKNE			LTHI			LANK			LTIP			LTOE			LMT1			LMT5			LHEE			RKNE			RTHI			RANK			RTIP			RTOE			RMT1			RMT5			RHEE			RHTS			RHIP			LIFD			*53			
		X1	Y1	Z1	X2	Y2	Z2	X3	Y3	Z3	X4	Y4	Z4	X5	Y5	Z5	X6	Y6	Z6	X7	Y7	Z7	X8	Y8	Z8	X9	Y9	Z9	X10	Y10	Z10	X11	Y11	Z11	X12	Y12	Z12	X13	Y13	Z13	X14	Y14	Z14	X15	Y15	Z15	X16	Y16	Z16	X17	Y17	Z17	X18	Y18	Z18	X19	Y19	Z19	X20	Y20	Z20	X21	Y21	Z21	X22	Y22	Z22	X23	Y23	Z23	X24	Y24	Z24	X25	Y25	Z25	X26	Y26	Z26	X27	Y27	Z27	X28	Y28	Z28	X29	Y29	Z29	X30	Y30	Z30	X31	Y31	Z31	X32	Y32	Z32	X33	Y33	Z33	X34	Y34	Z34	X35	Y35	Z35	X36	Y36	Z36	X37	Y37	Z37	X38	Y38	Z38	X39	Y39	Z39	X40	Y40	Z40	X41	Y41	Z41	X42	Y42	Z42	X43	Y43	Z43	X44	Y44	Z44	X45	Y45	Z45	X46	Y46	Z46	X47	Y47	Z47	X48	Y48	Z48	X49	Y49	Z49	X50	Y50	Z50	X51	Y51	Z51	X52	Y52	Z52	X53	Y53	Z53	X54	Y54	Z54	

183	1.82	-1284.656372070312	953.7317504882812	158.5423889160156	-1287.428344726562	939.6805419921875	25.89597702026367	-1280.752563476562	1020.472961425781	106.2233734130859	-1026.713500976562	1155.71533203125	108.1472320556641	-1282.592041015625	1124.224243164062	110.8229141235352	-1217.703247070312	1368.207275390625	106.630256652832	-1070.140014648438	1279.2255859375	109.2756652832031	-1272.287353515625	1225.0634765625	173.1099243164062	-1238.100830078125	1336.650146484375	4.956315517425537	-1153.65283203125	1344.594116210938	-50.08645248413086	-1216.364501953125	1240.613037109375	-113.30615234375	-1270.578369140625	1054.151123046875	-139.9822845458984	-1311.507690429688	1043.9189453125	-65.20332336425781	-1250.577026367188	818.3643798828125	-121.1880950927734	-1315.59716796875	829.872314453125	-170.9913787841797	-1294.282592773438	952.3045043945312	-154.6067047119141	-1333.040771484375	745.027099609375	-167.1900024414062	-1277.51953125	722.4598999023438	-144.3026885986328	-1162.158813476562	1341.034790039062	264.4147644042969	-1177.91796875	1274.81982421875	324.0869140625	-1151.61083984375	1012.172790527344	368.270751953125	-1172.470825195312	997.8421020507812	275.4369506835938	-937.7927856445312	896.2030029296875	335.7871704101562	-967.1405639648438	855.56201171875	390.0766296386719	-1102.287475585938	960.6510620117188	380.9774475097656	-827.8853759765625	766.8192138671875	337.6602783203125	-905.1355590820312	791.682861328125	391.4684143066406	-1171.321411132812	1553.528564453125	185.4825897216797	-1034.477416992188	1547.297241210938	38.56414031982422	-1038.749633789062	1557.578125	161.0067901611328	-1182.121948242188	1538.229370117188	24.19132614135742	-1193.519409179688	933.9664916992188	-80.44003295898438	-1076.7099609375	909.0012817382812	236.4182739257812	-1083.296630859375	925.64794921875	-26.38472175598145	-944.3011474609375	494.567626953125	-32.49762725830078	-1019.4697265625	613.870361328125	-57.0067138671875	-889.3892211914062	45.34223556518555	3.506118774414062	-912.148681640625	258.4889526367188	-27.60954093933105	-698.400146484375	119.7175521850586	75.70297241210938	-769.6227416992188	93.16488647460938	104.3982849121094	-767.3631591796875	78.24971771240234	-1.35115122795105	-926.8585205078125	35.54742050170898	58.62344360351562	-1324.208251953125	449.9403686523438	244.8472290039062	-1195.177856445312	683.12158203125	275.23046875	-1509.975952148438	70.11053466796875	192.3007659912109	-1358.197875976562	327.7926940917969	222.3525695800781	-1340.198852539062	39.1644172668457	122.3788070678711	-1414.074951171875	47.98404693603516	94.15526580810547	-1429.132080078125	47.89233779907227	193.7305145263672	-1587.283447265625	77.68234252929688	143.1957550048828	-857.0540161132812	829.6038208007812	360.5181274414062	-1214.235717773438	918.5380249023438	278.8337707519531	-1323.895263671875	653.8787841796875	-123.0022888183594	nan	nan	nan	
184	1.83	-1274.5703125	952.6092529296875	157.1037750244141	-1277.07275390625	938.3427124023438	24.55011367797852	-1270.644653320312	1018.764465332031	104.9516983032227	-1017.063903808594	1154.428588867188	107.3925476074219	-1273.388061523438	1122.628540039062	109.7015228271484	-1208.442260742188	1366.582885742188	106.1568908691406	-1060.764770507812	1277.888305664062	108.5732040405273	-1262.867553710938	1223.378662109375	172.5801849365234	-1228.894897460938	1335.101318359375	4.562241554260254	-1144.636108398438	1343.274291992188	-50.66294097900391	-1207.954956054688	1239.60791015625	-113.6206359863281	-1263.322631835938	1053.36767578125	-139.6725006103516	-1303.535400390625	1043.294799804688	-64.49060821533203	-1244.281005859375	817.5875854492188	-121.2001266479492	-1309.91064453125	829.2864379882812	-170.1700592041016	-1287.691772460938	951.6258544921875	-154.0833740234375	-1327.800659179688	744.531494140625	-166.1467742919922	-1271.9658203125	721.6972045898438	-143.8645935058594	-1152.72509765625	1339.434326171875	263.8296508789062	-1168.224731445312	1273.134887695312	323.5143737792969	-1140.87353515625	1010.6162109375	367.5930480957031	-1161.8232421875	996.2276000976562	274.8730163574219	-926.6038208007812	895.2633666992188	335.1318359375	-955.766357421875	854.69921875	389.5068969726562	-1091.310180664062	959.244140625	380.27294921875	-816.6611328125	765.8839721679688	336.9468383789062	-893.8428344726562	790.8126831054688	390.8360595703125	-1162.61474609375	1551.779541015625	185.1883697509766	-1025.992797851562	1546.293701171875	38.06861114501953	-1030.106811523438	1556.395385742188	160.545166015625	-1173.576049804688	1536.701293945312	23.9040584564209	-1182.610717773438	932.3112182617188	-81.29603576660156	-1066.953491210938	907.7767944335938	236.240966796875	-1072.941284179688	923.95556640625	-26.70136833190918	-934.3421020507812	492.6884460449219	-32.42654037475586	-1009.547790527344	611.7971801757812	-57.21849822998047	-881.491455078125	43.54386901855469	3.432479619979858	-903.0653076171875	256.545654296875	-27.47381401062012	-690.5191040039062	116.8044967651367	76.60963439941406	-761.90185546875	90.466796875	105.0833129882812	-759.287109375	75.73625946044922	-0.685369610786438	-919.3073120117188	33.93670654296875	58.36854934692383	-1318.268188476562	450.5340576171875	244.8740692138672	-1187.17041015625	682.6542358398438	275.0805969238281	-1508.832763671875	72.15447998046875	193.1688079833984	-1353.79296875	328.5762939453125	222.7390747070312	-1340.046752929688	39.19771957397461	122.4507904052734	-1413.677856445312	48.93586349487305	94.52886199951172	-1428.350952148438	48.03520965576172	194.3230133056641	-1586.03515625	81.5540771484375	144.1966094970703	-845.7974243164062	828.737060546875	359.7828063964844	-1204.709228515625	917.6973876953125	277.8223571777344	-1318.689697265625	653.3279418945312	-122.0096969604492	nan	nan	nan	
185	1.84	-1264.113403320312	951.5863037109375	155.7603759765625	-1266.424072265625	937.1519165039062	23.27332305908203	-1260.161254882812	1017.069641113281	103.7116394042969	-1007.137634277344	1153.305053710938	106.6005020141602	-1263.8671875	1121.032470703125	108.5538635253906	-1198.989624023438	1365.012817382812	105.5751190185547	-1051.11767578125	1276.69873046875	107.815185546875	-1253.241455078125	1221.724365234375	171.9542236328125	-1219.447021484375	1333.5947265625	4.040062427520752	-1135.352661132812	1342.047729492188	-51.32920074462891	-1199.167236328125	1238.658813476562	-114.0647048950195	-1255.585815429688	1052.6103515625	-139.4688873291016	-1295.122680664062	1042.701782226562	-63.91644668579102	-1237.41357421875	816.86572265625	-121.1707153320312	-1303.591064453125	828.6854248046875	-169.4120483398438	-1280.545654296875	950.9522705078125	-153.6415100097656	-1321.848388671875	743.9921875	-165.1058807373047	-1265.744262695312	720.9926147460938	-143.4255828857422	-1143.141967773438	1337.931274414062	263.1459655761719	-1158.379272460938	1271.551635742188	322.8290405273438	-1130.015747070312	1009.186157226562	366.9049987792969	-1151.049438476562	994.7304077148438	274.2691955566406	-915.4482421875	894.0011596679688	334.4635620117188	-944.5641479492188	853.6095581054688	388.9775695800781	-1080.309326171875	957.89501953125	379.5743713378906	-805.8933715820312	764.2827758789062	336.2069396972656	-882.8596801757812	789.523681640625	390.2416687011719	-1153.746826171875	1550.1064453125	184.8447570800781	-1017.348876953125	1545.410522460938	37.57199859619141	-1021.34228515625	1555.285400390625	160.0828399658203	-1164.879272460938	1535.321411132812	23.56787490844727	-1171.5126953125	930.8380126953125	-82.1612548828125	-1056.756713867188	906.6071166992188	235.9734039306641	-1062.367919921875	922.394287109375	-27.09546661376953	-924.4153442382812	490.7991943359375	-32.36175155639648	-999.499755859375	609.7783813476562	-57.43095779418945	-874.8153686523438	41.87522125244141	3.545568943023682	-894.5850830078125	254.511474609375	-27.19161415100098	-683.4534301757812	113.1224594116211	77.40070343017578	-755.1593017578125	87.24678039550781	105.7707443237305	-752.3519287109375	72.79734802246094	-0.03036941215395927	-912.9215087890625	32.64026641845703	58.37565994262695	-1311.82373046875	451.1710510253906	244.7718048095703	-1178.673950195312	682.2092895507812	274.7644958496094	-1507.48828125	74.41941833496094	194.0550384521484	-1348.968017578125	329.4570617675781	223.0376739501953	-1339.8603515625	39.21476364135742	122.5095443725586	-1413.18603515625	49.97222137451172	94.89274597167969	-1427.461181640625	48.20450210571289	194.8849334716797	-1584.557861328125	85.75756072998047	145.2517852783203	-834.8092651367188	827.3018188476562	359.0152587890625	-1194.70361328125	916.8709106445312	276.8326110839844	-1312.693969726562	652.762939453125	-120.9471206665039	nan	nan	nan	
186	1.85	-1253.276611328125	950.6408081054688	154.5534362792969	-1255.514404296875	936.1089477539062	22.10193824768066	-1249.300903320312	1015.408874511719	102.5440444946289	-996.9300537109375	1152.345947265625	105.7680587768555	-1253.986450195312	1119.445434570312	107.4215469360352	-1189.334716796875	1363.52490234375	104.8855590820312	-1041.192016601562	1275.66015625	106.9919662475586	-1243.380737304688	1220.115600585938	171.2389984130859	-1209.756713867188	1332.148803710938	3.382692813873291	-1125.793212890625	1340.914672851562	-52.09158325195312	-1189.98388671875	1237.74462890625	-114.6438674926758	-1247.336547851562	1051.858520507812	-139.3975982666016	-1286.25732421875	1042.1171875	-63.51217651367188	-1229.990966796875	816.1591186523438	-121.0874404907227	-1296.61376953125	828.0519409179688	-168.7432861328125	-1272.817504882812	950.2642211914062	-153.3080902099609	-1315.187744140625	743.3982543945312	-164.0924377441406	-1258.865966796875	720.3414916992188	-142.9975280761719	-1133.3837890625	1336.541381835938	262.3672790527344	-1148.366088867188	1270.081665039062	322.02587890625	-1119.038696289062	1007.888610839844	366.2060241699219	-1140.15283203125	993.3588256835938	273.6239624023438	-904.3634033203125	892.4096069335938	333.7834777832031	-933.5645141601562	852.2943725585938	388.4891357421875	-1069.293212890625	956.6091918945312	378.8837585449219	-795.6039428710938	762.02197265625	335.4580383300781	-872.1849365234375	787.8240966796875	389.6999206542969	-1144.730102539062	1548.538208007812	184.4526824951172	-1008.539001464844	1544.6728515625	37.07900619506836	-1012.460327148438	1554.2763671875	159.6224365234375	-1156.02392578125	1534.100341796875	23.17787933349609	-1160.290283203125	929.5762329101562	-83.03739929199219	-1046.08984375	905.494140625	235.5787048339844	-1051.591918945312	921.0050048828125	-27.59000205993652	-914.48583984375	488.9679260253906	-32.29369735717773	-989.292236328125	607.862548828125	-57.63175964355469	-869.4112548828125	40.47370147705078	3.866105556488037	-886.6876220703125	252.4566650390625	-26.73687744140625	-677.193603515625	108.586051940918	78.06508636474609	-749.3883666992188	83.49231719970703	106.4409103393555	-746.5997924804688	69.47403717041016	0.6008427143096924	-907.7444458007812	31.79334259033203	58.66362762451172	-1304.811889648438	451.8292846679688	244.5135955810547	-1169.643676757812	681.764404296875	274.2645568847656	-1505.913330078125	76.92333984375	194.9431304931641	-1343.667724609375	330.4324645996094	223.2294616699219	-1339.641967773438	39.21389389038086	122.5536956787109	-1412.578125	51.09087371826172	95.24594116210938	-1426.451293945312	48.40156555175781	195.4140625	-1582.819702148438	90.32798767089844	146.3409118652344	-824.10009765625	825.2952270507812	358.2266540527344	-1184.185180664062	916.0292358398438	275.8750305175781	-1305.944213867188	652.1815185546875	-119.8321990966797	nan	nan	nan	
